# xmcd
#
# Track frame offsets:
#	150
#	16965
#	32062
#	48797
#	67637
#	85277
#	105495
#	127090
#	146327
#	159922
#	176534
#	195142
#	208819
#	226474
#	244124
#	258612
#	269422
#	283057
#	328417
#
# Disc length: 4635 seconds
#
# Revision: 1
# Processed by: cddbd v1.5.1PL2 Copyright (c) Steve Scherf et al.
# Submitted via: audiograbber 1.83.01
#
DISCID=09121913
DTITLE=Top Hits Monthly - thmpl01
DYEAR=1900
DGENRE=
TTITLE0=Twain, Shania - Honey I'm Home
TTITLE1=Twain, Shania - You're Still The One
TTITLE2=Twain, Shania - Don't Be Stupid
TTITLE3=Twain, Shania - Any Man Of Mine
TTITLE4=Twain, Shania - From This Moment On
TTITLE5=Twain, Shania - Who's Bed Have Y our Boots Been Under
TTITLE6=Twain, Shania - The Woman In Me
TTITLE7=Twain, Shania - Home Ain't Where The Heart Is
TTITLE8=Twain, Shania - You Win My Love
TTITLE9=Twain, Shania - Love Gets Me Every Time
TTITLE10=Twain, Shania - Man I Feel Like A Woman
TTITLE11=Twain, Shania - Come On Over
TTITLE12=Twain, Shania - I'm Outta Here
TTITLE13=Twain, Shania - God Bless The Child
TTITLE14=Twain, Shania - No One Needs To Know
TTITLE15=Twain, Shania - Dance With The One That Brought You
TTITLE16=Twain, Shania - What Made You Say That
TTITLE17=Twain, Shania - You Lay A Whole Lot Of Love On Me
TTITLE18=Twain, Shania - I'm Gonna Getcha Good
EXTD=
EXTT0=
EXTT1=
EXTT2=
EXTT3=
EXTT4=
EXTT5=
EXTT6=
EXTT7=
EXTT8=
EXTT9=
EXTT10=
EXTT11=
EXTT12=
EXTT13=
EXTT14=
EXTT15=
EXTT16=
EXTT17=
EXTT18=
PLAYORDER=
